<?xml version="1.0" encoding="UTF-8"?> <svg xmlns:xlink="http://www.w3.org/1999/xlink" xmlns="http://www.w3.org/2000/svg" version="1.1" viewBox="0.0 0.0 404.6062992125984 184.9763779527559" fill="none" stroke="none" stroke-linecap="square" stroke-miterlimit="10"><clipPath id="p.0"><path d="m0 0l404.6063 0l0 184.97638l-404.6063 0l0 -184.97638z" clip-rule="nonzero"></path></clipPath><g clip-path="url(#p.0)"><path fill="#000000" fill-opacity="0.0" d="m0 0l404.6063 0l0 184.97638l-404.6063 0z" fill-rule="evenodd"></path><path fill="#6d9eeb" d="m0.8636709 0.0023070867l21.417324 0l0 11.811024l-21.417324 0z" fill-rule="evenodd"></path><path fill="#6d9eeb" d="m383.83078 9.826772E-4l21.417328 0l0 11.811024l-21.417328 0z" fill-rule="evenodd"></path><path fill="#6d9eeb" d="m0.8636709 132.49931l21.417324 0l0 11.81102l-21.417324 0z" fill-rule="evenodd"></path><path fill="#6d9eeb" d="m383.83078 132.49931l21.417328 0l0 11.81102l-21.417328 0z" fill-rule="evenodd"></path><path fill="#6d9eeb" d="m4.8398952 3.2519686l395.7795 0l0 137.25984l-395.7795 0z" fill-rule="evenodd"></path><path fill="#6d9eeb" d="m21.61377 136.20064l0 -127.697495l9.957739 0l0 127.697495z" fill-rule="evenodd"></path><path fill="#a4c2f4" d="m31.567266 136.20064l0 -127.697495l5.615011 0l0 127.697495z" fill-rule="evenodd"></path><path fill="#3c78d8" d="m15.998758 136.20064l0 -127.697495l5.615011 0l0 127.697495z" fill-rule="evenodd"></path><path fill="#000000" fill-opacity="0.0" d="m16.202332 136.10703l21.035088 0.09361267" fill-rule="evenodd"></path><path stroke="#3c78d8" stroke-width="1.0" stroke-linejoin="round" stroke-linecap="butt" d="m16.202332 136.10703l21.035088 0.09361267" fill-rule="evenodd"></path><path fill="#000000" fill-opacity="0.0" d="m16.110008 8.563002l21.035088 0.0936203" fill-rule="evenodd"></path><path stroke="#3c78d8" stroke-width="1.0" stroke-linejoin="round" stroke-linecap="butt" d="m16.110008 8.563002l21.035088 0.0936203" fill-rule="evenodd"></path><path fill="#6d9eeb" d="m60.263515 136.20064l0 -127.697495l9.957737 0l0 127.697495z" fill-rule="evenodd"></path><path fill="#a4c2f4" d="m70.21701 136.20064l0 -127.697495l5.615013 0l0 127.697495z" fill-rule="evenodd"></path><path fill="#3c78d8" d="m54.648502 136.20064l0 -127.697495l5.615013 0l0 127.697495z" fill-rule="evenodd"></path><path fill="#000000" fill-opacity="0.0" d="m54.852077 136.10703l21.035084 0.09361267" fill-rule="evenodd"></path><path stroke="#3c78d8" stroke-width="1.0" stroke-linejoin="round" stroke-linecap="butt" d="m54.852077 136.10703l21.035084 0.09361267" fill-rule="evenodd"></path><path fill="#000000" fill-opacity="0.0" d="m54.759754 8.563002l21.035084 0.0936203" fill-rule="evenodd"></path><path stroke="#3c78d8" stroke-width="1.0" stroke-linejoin="round" stroke-linecap="butt" d="m54.759754 8.563002l21.035084 0.0936203" fill-rule="evenodd"></path><path fill="#6d9eeb" d="m98.91326 136.20064l0 -127.697495l9.957741 0l0 127.697495z" fill-rule="evenodd"></path><path fill="#a4c2f4" d="m108.86676 136.20064l0 -127.697495l5.615013 0l0 127.697495z" fill-rule="evenodd"></path><path fill="#3c78d8" d="m93.29825 136.20064l0 -127.697495l5.615013 0l0 127.697495z" fill-rule="evenodd"></path><path fill="#000000" fill-opacity="0.0" d="m93.50182 136.10703l21.035088 0.09361267" fill-rule="evenodd"></path><path stroke="#3c78d8" stroke-width="1.0" stroke-linejoin="round" stroke-linecap="butt" d="m93.50182 136.10703l21.035088 0.09361267" fill-rule="evenodd"></path><path fill="#000000" fill-opacity="0.0" d="m93.4095 8.563002l21.035088 0.0936203" fill-rule="evenodd"></path><path stroke="#3c78d8" stroke-width="1.0" stroke-linejoin="round" stroke-linecap="butt" d="m93.4095 8.563002l21.035088 0.0936203" fill-rule="evenodd"></path><path fill="#6d9eeb" d="m137.563 136.20064l0 -127.697495l9.957748 0l0 127.697495z" fill-rule="evenodd"></path><path fill="#a4c2f4" d="m147.51651 136.20064l0 -127.697495l5.6150055 0l0 127.697495z" fill-rule="evenodd"></path><path fill="#3c78d8" d="m131.948 136.20064l0 -127.697495l5.6150055 0l0 127.697495z" fill-rule="evenodd"></path><path fill="#000000" fill-opacity="0.0" d="m132.15157 136.10703l21.035095 0.09361267" fill-rule="evenodd"></path><path stroke="#3c78d8" stroke-width="1.0" stroke-linejoin="round" stroke-linecap="butt" d="m132.15157 136.10703l21.035095 0.09361267" fill-rule="evenodd"></path><path fill="#000000" fill-opacity="0.0" d="m132.05925 8.563002l21.03508 0.0936203" fill-rule="evenodd"></path><path stroke="#3c78d8" stroke-width="1.0" stroke-linejoin="round" stroke-linecap="butt" d="m132.05925 8.563002l21.03508 0.0936203" fill-rule="evenodd"></path><path fill="#6d9eeb" d="m179.17671 136.20064l0 -127.697495l9.957748 0l0 127.697495z" fill-rule="evenodd"></path><path fill="#a4c2f4" d="m189.13022 136.20064l0 -127.697495l5.6150055 0l0 127.697495z" fill-rule="evenodd"></path><path fill="#3c78d8" d="m173.5617 136.20064l0 -127.697495l5.6150055 0l0 127.697495z" fill-rule="evenodd"></path><path fill="#000000" fill-opacity="0.0" d="m173.76527 136.10703l21.035095 0.09361267" fill-rule="evenodd"></path><path stroke="#3c78d8" stroke-width="1.0" stroke-linejoin="round" stroke-linecap="butt" d="m173.76527 136.10703l21.035095 0.09361267" fill-rule="evenodd"></path><path fill="#000000" fill-opacity="0.0" d="m173.67296 8.563002l21.03508 0.0936203" fill-rule="evenodd"></path><path stroke="#3c78d8" stroke-width="1.0" stroke-linejoin="round" stroke-linecap="butt" d="m173.67296 8.563002l21.03508 0.0936203" fill-rule="evenodd"></path><path fill="#6d9eeb" d="m218.71342 136.20064l0 -127.697495l9.957748 0l0 127.697495z" fill-rule="evenodd"></path><path fill="#a4c2f4" d="m228.66693 136.20064l0 -127.697495l5.6150055 0l0 127.697495z" fill-rule="evenodd"></path><path fill="#3c78d8" d="m213.09842 136.20064l0 -127.697495l5.6150055 0l0 127.697495z" fill-rule="evenodd"></path><path fill="#000000" fill-opacity="0.0" d="m213.30199 136.10703l21.035095 0.09361267" fill-rule="evenodd"></path><path stroke="#3c78d8" stroke-width="1.0" stroke-linejoin="round" stroke-linecap="butt" d="m213.30199 136.10703l21.035095 0.09361267" fill-rule="evenodd"></path><path fill="#000000" fill-opacity="0.0" d="m213.20967 8.563002l21.03508 0.0936203" fill-rule="evenodd"></path><path stroke="#3c78d8" stroke-width="1.0" stroke-linejoin="round" stroke-linecap="butt" d="m213.20967 8.563002l21.03508 0.0936203" fill-rule="evenodd"></path><path fill="#6d9eeb" d="m257.80667 136.20064l0 -127.697495l9.957733 0l0 127.697495z" fill-rule="evenodd"></path><path fill="#a4c2f4" d="m267.76016 136.20064l0 -127.697495l5.6150208 0l0 127.697495z" fill-rule="evenodd"></path><path fill="#3c78d8" d="m252.19165 136.20064l0 -127.697495l5.6150208 0l0 127.697495z" fill-rule="evenodd"></path><path fill="#000000" fill-opacity="0.0" d="m252.39522 136.10703l21.03508 0.09361267" fill-rule="evenodd"></path><path stroke="#3c78d8" stroke-width="1.0" stroke-linejoin="round" stroke-linecap="butt" d="m252.39522 136.10703l21.03508 0.09361267" fill-rule="evenodd"></path><path fill="#000000" fill-opacity="0.0" d="m252.3029 8.563002l21.03508 0.0936203" fill-rule="evenodd"></path><path stroke="#3c78d8" stroke-width="1.0" stroke-linejoin="round" stroke-linecap="butt" d="m252.3029 8.563002l21.03508 0.0936203" fill-rule="evenodd"></path><path fill="#6d9eeb" d="m296.45642 136.20064l0 -127.697495l9.957733 0l0 127.697495z" fill-rule="evenodd"></path><path fill="#a4c2f4" d="m306.4099 136.20064l0 -127.697495l5.61499 0l0 127.697495z" fill-rule="evenodd"></path><path fill="#3c78d8" d="m290.8414 136.20064l0 -127.697495l5.6150208 0l0 127.697495z" fill-rule="evenodd"></path><path fill="#000000" fill-opacity="0.0" d="m291.04498 136.10703l21.035065 0.09361267" fill-rule="evenodd"></path><path stroke="#3c78d8" stroke-width="1.0" stroke-linejoin="round" stroke-linecap="butt" d="m291.04498 136.10703l21.035065 0.09361267" fill-rule="evenodd"></path><path fill="#000000" fill-opacity="0.0" d="m290.95264 8.563002l21.035095 0.0936203" fill-rule="evenodd"></path><path stroke="#3c78d8" stroke-width="1.0" stroke-linejoin="round" stroke-linecap="butt" d="m290.95264 8.563002l21.035095 0.0936203" fill-rule="evenodd"></path><path fill="#6d9eeb" d="m335.10614 136.20064l0 -127.697495l9.957764 0l0 127.697495z" fill-rule="evenodd"></path><path fill="#a4c2f4" d="m345.05966 136.20064l0 -127.697495l5.61499 0l0 127.697495z" fill-rule="evenodd"></path><path fill="#3c78d8" d="m329.49115 136.20064l0 -127.697495l5.61499 0l0 127.697495z" fill-rule="evenodd"></path><path fill="#000000" fill-opacity="0.0" d="m329.6947 136.10703l21.035095 0.09361267" fill-rule="evenodd"></path><path stroke="#3c78d8" stroke-width="1.0" stroke-linejoin="round" stroke-linecap="butt" d="m329.6947 136.10703l21.035095 0.09361267" fill-rule="evenodd"></path><path fill="#000000" fill-opacity="0.0" d="m329.6024 8.563002l21.035095 0.0936203" fill-rule="evenodd"></path><path stroke="#3c78d8" stroke-width="1.0" stroke-linejoin="round" stroke-linecap="butt" d="m329.6024 8.563002l21.035095 0.0936203" fill-rule="evenodd"></path><path fill="#6d9eeb" d="m373.7559 136.20064l0 -127.697495l9.957764 0l0 127.697495z" fill-rule="evenodd"></path><path fill="#a4c2f4" d="m383.7094 136.20064l0 -127.697495l5.61499 0l0 127.697495z" fill-rule="evenodd"></path><path fill="#3c78d8" d="m368.1409 136.20064l0 -127.697495l5.61499 0l0 127.697495z" fill-rule="evenodd"></path><path fill="#000000" fill-opacity="0.0" d="m368.34445 136.10703l21.035095 0.09361267" fill-rule="evenodd"></path><path stroke="#3c78d8" stroke-width="1.0" stroke-linejoin="round" stroke-linecap="butt" d="m368.34445 136.10703l21.035095 0.09361267" fill-rule="evenodd"></path><path fill="#000000" fill-opacity="0.0" d="m368.25214 8.563002l21.035095 0.0936203" fill-rule="evenodd"></path><path stroke="#3c78d8" stroke-width="1.0" stroke-linejoin="round" stroke-linecap="butt" d="m368.25214 8.563002l21.035095 0.0936203" fill-rule="evenodd"></path><path fill="#000000" fill-opacity="0.0" d="m36.63253 21.86106l205.5433 0l0 95.11811l-205.5433 0z" fill-rule="evenodd"></path><path fill="#f3f3f3" d="m81.07847 102.13606q-5.578125 0 -9.328125 -1.96875q-3.734375 -1.984375 -5.640625 -6.125q-1.90625 -4.140625 -2.125 -10.75l11.21875 -1.6875q0.078125 3.8125 0.703125 6.171875q0.625 2.34375 1.75 3.375q1.140625 1.015625 2.75 1.015625q2.0625 0 2.6875 -1.390625q0.625 -1.390625 0.625 -2.9375q0 -3.65625 -1.765625 -6.1875q-1.765625 -2.53125 -4.765625 -5.109375l-5.140625 -4.46875q-3.375 -2.859375 -5.6875 -6.484375q-2.296875 -3.625 -2.296875 -8.984375q0 -7.546875 4.46875 -11.546875q4.46875 -4.0 12.171875 -4.0q4.765625 0 7.65625 1.625q2.90625 1.609375 4.40625 4.21875q1.5 2.59375 2.046875 5.484375q0.5625 2.890625 0.625 5.53125l-11.28125 1.40625q-0.078125 -2.640625 -0.34375 -4.578125q-0.25 -1.953125 -1.0625 -3.015625q-0.796875 -1.0625 -2.484375 -1.0625q-1.828125 0 -2.671875 1.546875q-0.84375 1.53125 -0.84375 3.0625q0 3.3125 1.5625 5.40625q1.578125 2.078125 4.15625 4.359375l4.90625 4.328125q3.890625 3.296875 6.5625 7.484375q2.671875 4.171875 2.671875 10.328125q0 4.171875 -1.90625 7.59375q-1.90625 3.40625 -5.390625 5.390625q-3.46875 1.96875 -8.234375 1.96875zm20.970383 -0.875l0 -59.390625l13.125 0l0 24.046875l9.15625 0l0 -24.046875l13.203133 0l0 59.390625l-13.203133 0l0 -25.953125l-9.15625 0l0 25.953125l-13.125 0zm61.511345 0.875q-6.671875 0 -10.5625 -2.34375q-3.875 -2.34375 -5.5625 -6.734375q-1.6875 -4.40625 -1.6875 -10.5l0 -22.0625q0 -6.171875 1.6875 -10.484375q1.6875 -4.328125 5.5625 -6.640625q3.890625 -2.3125 10.5625 -2.3125q6.75 0 10.671875 2.3125q3.921875 2.3125 5.609375 6.640625q1.6875 4.3125 1.6875 10.484375l0 22.0625q0 6.09375 -1.6875 10.5q-1.6875 4.390625 -5.609375 6.734375q-3.921875 2.34375 -10.671875 2.34375zm0 -9.3125q2.0625 0 3.015625 -1.015625q0.953125 -1.03125 1.234375 -2.640625q0.296875 -1.625 0.296875 -3.3125l0 -28.59375q0 -1.75 -0.296875 -3.328125q-0.28125 -1.578125 -1.234375 -2.609375q-0.953125 -1.03125 -3.015625 -1.03125q-1.90625 0 -2.859375 1.03125q-0.953125 1.03125 -1.25 2.609375q-0.28125 1.578125 -0.28125 3.328125l0 28.59375q0 1.6875 0.25 3.3125q0.265625 1.609375 1.171875 2.640625q0.921875 1.015625 2.96875 1.015625zm25.970215 8.4375l0 -59.390625l26.6875 0l0 8.9375l-13.5625 0l0 14.75l10.328125 0l0 9.078125l-10.328125 0l0 17.75l13.703125 0l0 8.875l-26.828125 0z" fill-rule="nonzero"></path><path fill="#000000" fill-opacity="0.0" d="m178.17082 22.166945l205.54329 0l0 94.29921l-205.54329 0z" fill-rule="evenodd"></path><path fill="#434343" d="m224.00987 101.56695l0 -59.390625l15.46875 0q3.8125 0 7.21875 0.59375q3.40625 0.578125 6.046875 2.234375q2.640625 1.640625 4.1406403 4.6875q1.515625 3.03125 1.515625 8.03125q0 3.59375 -1.078125 6.046875q-1.0625 2.453125 -3.0000153 3.921875q-1.9375 1.46875 -4.65625 1.984375q3.453125 0.4375 5.796875 2.234375q2.3437653 1.796875 3.5468903 4.796875q1.21875 3.0 1.21875 7.265625q0 4.609375 -1.21875 7.953125q-1.203125 3.328125 -3.4843903 5.46875q-2.265625 2.125 -5.609375 3.15625q-3.328125 1.015625 -7.65625 1.015625l-18.25 0zm13.125 -9.171875l2.78125 0q4.328125 0 5.96875 -2.1875q1.65625 -2.203125 1.65625 -6.453125q0 -3.375 -0.734375 -5.359375q-0.734375 -1.984375 -2.421875 -2.890625q-1.6875 -0.921875 -4.546875 -0.921875l-2.703125 0l0 17.8125zm0 -26.46875l2.5625 0q3.0 0 4.53125 -0.90625q1.546875 -0.921875 2.09375 -2.671875q0.5625 -1.765625 0.5625 -4.265625q0 -2.34375 -0.84375 -3.921875q-0.84375 -1.578125 -2.5 -2.375q-1.640625 -0.8125 -4.140625 -0.8125l-2.265625 0l0 14.953125zm46.991898 36.515625q-6.671875 0 -10.5625 -2.34375q-3.875 -2.34375 -5.5625 -6.734375q-1.6875 -4.40625 -1.6875 -10.5l0 -22.0625q0 -6.171875 1.6875 -10.484375q1.6875 -4.328125 5.5625 -6.640625q3.890625 -2.3125 10.5625 -2.3125q6.75 0 10.671875 2.3125q3.921875 2.3125 5.609375 6.640625q1.6875 4.3125 1.6875 10.484375l0 22.0625q0 6.09375 -1.6875 10.5q-1.6875 4.390625 -5.609375 6.734375q-3.921875 2.34375 -10.671875 2.34375zm0 -9.3125q2.0625 0 3.015625 -1.015625q0.953125 -1.03125 1.234375 -2.640625q0.296875 -1.625 0.296875 -3.3125l0 -28.59375q0 -1.75 -0.296875 -3.328125q-0.28125 -1.578125 -1.234375 -2.609375q-0.953125 -1.03125 -3.015625 -1.03125q-1.90625 0 -2.859375 1.03125q-0.953125 1.03125 -1.25 2.609375q-0.28125 1.578125 -0.28125 3.328125l0 28.59375q0 1.6875 0.25 3.3125q0.265625 1.609375 1.171875 2.640625q0.921875 1.015625 2.96875 1.015625zm20.90625 8.4375l11.5155945 -31.96875l-10.9999695 -27.421875l12.3905945 0l6.515625 16.046875l5.28125 -16.046875l10.9375 0l-10.421875 30.859375l11.59375 28.53125l-12.328125 0l-7.25 -17.75l-6.390625 17.75l-10.8437195 0z" fill-rule="nonzero"></path><path fill="#000000" fill-opacity="0.0" d="m87.249344 140.77428l262.07874 0l0 40.850388l-262.07874 0z" fill-rule="evenodd"></path><path fill="#ffffff" d="m103.95247 176.99803q-2.125 0 -3.5625 -0.75q-1.421875 -0.765625 -2.15625 -2.34375q-0.71875 -1.59375 -0.8125 -4.109375l4.28125 -0.640625q0.03125 1.453125 0.265625 2.359375q0.25 0.890625 0.671875 1.28125q0.4375 0.390625 1.0625 0.390625q0.78125 0 1.015625 -0.53125q0.234375 -0.53125 0.234375 -1.125q0 -1.40625 -0.671875 -2.359375q-0.671875 -0.96875 -1.8125 -1.953125l-1.96875 -1.703125q-1.28125 -1.09375 -2.171875 -2.484375q-0.875 -1.390625 -0.875 -3.421875q0 -2.890625 1.703125 -4.40625q1.71875 -1.53125 4.65625 -1.53125q1.8125 0 2.921875 0.625q1.109375 0.609375 1.671875 1.609375q0.578125 0.984375 0.78125 2.09375q0.21875 1.09375 0.25 2.109375l-4.3125 0.53125q-0.03125 -1.015625 -0.125 -1.75q-0.09375 -0.75 -0.40625 -1.140625q-0.3125 -0.40625 -0.953125 -0.40625q-0.703125 0 -1.03125 0.59375q-0.3125 0.578125 -0.3125 1.15625q0 1.265625 0.59375 2.0625q0.609375 0.796875 1.59375 1.671875l1.875 1.640625q1.484375 1.265625 2.5 2.859375q1.03125 1.59375 1.03125 3.953125q0 1.59375 -0.734375 2.90625q-0.71875 1.296875 -2.0625 2.0625q-1.328125 0.75 -3.140625 0.75zm10.407684 -0.34375l0 -18.953125l-3.40625 0l0 -3.734375l11.84375 0l0 3.734375l-3.390625 0l0 18.953125l-5.046875 0zm16.689178 0.34375q-2.546875 0 -4.03125 -0.890625q-1.484375 -0.90625 -2.125 -2.578125q-0.640625 -1.6875 -0.640625 -4.015625l0 -8.421875q0 -2.359375 0.640625 -4.0q0.640625 -1.65625 2.125 -2.53125q1.484375 -0.890625 4.03125 -0.890625q2.578125 0 4.078125 0.890625q1.5 0.875 2.140625 2.53125q0.640625 1.640625 0.640625 4.0l0 8.421875q0 2.328125 -0.640625 4.015625q-0.640625 1.671875 -2.140625 2.578125q-1.5 0.890625 -4.078125 0.890625zm0 -3.5625q0.78125 0 1.140625 -0.390625q0.375 -0.390625 0.484375 -1.0q0.109375 -0.625 0.109375 -1.265625l0 -10.921875q0 -0.671875 -0.109375 -1.265625q-0.109375 -0.609375 -0.484375 -1.0q-0.359375 -0.390625 -1.140625 -0.390625q-0.71875 0 -1.09375 0.390625q-0.359375 0.390625 -0.46875 1.0q-0.109375 0.59375 -0.109375 1.265625l0 10.921875q0 0.640625 0.09375 1.265625q0.09375 0.609375 0.4375 1.0q0.359375 0.390625 1.140625 0.390625zm9.923691 3.21875l0 -22.6875l6.234375 0q2.296875 0 3.96875 0.515625q1.6875 0.5 2.625 1.8125q0.9375 1.296875 0.9375 3.671875q0 1.40625 -0.21875 2.5q-0.21875 1.078125 -0.828125 1.875q-0.609375 0.796875 -1.71875 1.34375l3.109375 10.96875l-5.1875 0l-2.484375 -10.15625l-1.4375 0l0 10.15625l-5.0 0zm5.0 -13.046875l1.40625 0q1.0625 0 1.640625 -0.375q0.59375 -0.375 0.828125 -1.09375q0.25 -0.71875 0.25 -1.71875q0 -1.46875 -0.53125 -2.265625q-0.53125 -0.8125 -1.96875 -0.8125l-1.625 0l0 6.265625zm10.706314 13.046875l4.28125 -22.6875l5.703125 0l4.234375 22.6875l-4.625 0l-0.75 -4.78125l-3.328125 0l-0.796875 4.78125l-4.71875 0zm5.953125 -7.78125l2.40625 0l-1.203125 -8.84375l-1.203125 8.84375zm16.110947 8.125q-2.359375 0 -3.71875 -0.984375q-1.359375 -0.984375 -1.9375 -2.765625q-0.5625 -1.78125 -0.5625 -4.09375l0 -7.625q0 -2.40625 0.609375 -4.171875q0.625 -1.765625 2.109375 -2.71875q1.5 -0.96875 4.078125 -0.96875q2.53125 0 3.96875 0.84375q1.4375 0.828125 2.046875 2.3125q0.625 1.484375 0.625 3.46875l0 1.46875l-4.90625 0l0 -1.859375q0 -0.71875 -0.09375 -1.328125q-0.09375 -0.625 -0.453125 -1.0q-0.34375 -0.375 -1.125 -0.375q-0.8125 0 -1.1875 0.4375q-0.359375 0.421875 -0.453125 1.078125q-0.09375 0.640625 -0.09375 1.328125l0 10.5q0 0.765625 0.140625 1.421875q0.15625 0.65625 0.5625 1.0625q0.40625 0.40625 1.171875 0.40625q0.78125 0 1.203125 -0.421875q0.421875 -0.421875 0.578125 -1.09375q0.171875 -0.671875 0.171875 -1.421875l0 -2.65625l-2.046875 0l0 -2.953125l6.5625 0l0 11.765625l-3.3125 0l-0.28125 -1.875q-0.4375 0.953125 -1.3125 1.59375q-0.859375 0.625 -2.34375 0.625zm10.389816 -0.34375l0 -22.6875l10.1875 0l0 3.421875l-5.1875 0l0 5.625l3.953125 0l0 3.484375l-3.953125 0l0 6.765625l5.234375 0l0 3.390625l-10.234375 0zm25.699707 0.34375q-2.125 0 -3.5625 -0.75q-1.421875 -0.765625 -2.15625 -2.34375q-0.71875 -1.59375 -0.8125 -4.109375l4.28125 -0.640625q0.03125 1.453125 0.265625 2.359375q0.25 0.890625 0.671875 1.28125q0.4375 0.390625 1.0625 0.390625q0.78125 0 1.015625 -0.53125q0.234375 -0.53125 0.234375 -1.125q0 -1.40625 -0.671875 -2.359375q-0.671875 -0.96875 -1.8125 -1.953125l-1.96875 -1.703125q-1.28125 -1.09375 -2.171875 -2.484375q-0.875 -1.390625 -0.875 -3.421875q0 -2.890625 1.703125 -4.40625q1.71875 -1.53125 4.65625 -1.53125q1.8125 0 2.921875 0.625q1.109375 0.609375 1.671875 1.609375q0.578125 0.984375 0.78125 2.09375q0.21875 1.09375 0.25 2.109375l-4.3125 0.53125q-0.03125 -1.015625 -0.125 -1.75q-0.09375 -0.75 -0.40625 -1.140625q-0.3125 -0.40625 -0.953125 -0.40625q-0.703125 0 -1.03125 0.59375q-0.3125 0.578125 -0.3125 1.15625q0 1.265625 0.59375 2.0625q0.609375 0.796875 1.59375 1.671875l1.875 1.640625q1.484375 1.265625 2.5 2.859375q1.03125 1.59375 1.03125 3.953125q0 1.59375 -0.734375 2.90625q-0.71875 1.296875 -2.0625 2.0625q-1.328125 0.75 -3.140625 0.75zm14.860809 0q-2.546875 0 -4.03125 -0.890625q-1.484375 -0.90625 -2.125 -2.578125q-0.640625 -1.6875 -0.640625 -4.015625l0 -8.421875q0 -2.359375 0.640625 -4.0q0.640625 -1.65625 2.125 -2.53125q1.484375 -0.890625 4.03125 -0.890625q2.578125 0 4.078125 0.890625q1.5 0.875 2.140625 2.53125q0.640625 1.640625 0.640625 4.0l0 8.421875q0 2.328125 -0.640625 4.015625q-0.640625 1.671875 -2.140625 2.578125q-1.5 0.890625 -4.078125 0.890625zm0 -3.5625q0.78125 0 1.140625 -0.390625q0.375 -0.390625 0.484375 -1.0q0.109375 -0.625 0.109375 -1.265625l0 -10.921875q0 -0.671875 -0.109375 -1.265625q-0.109375 -0.609375 -0.484375 -1.0q-0.359375 -0.390625 -1.140625 -0.390625q-0.71875 0 -1.09375 0.390625q-0.359375 0.390625 -0.46875 1.0q-0.109375 0.59375 -0.109375 1.265625l0 10.921875q0 0.640625 0.09375 1.265625q0.09375 0.609375 0.4375 1.0q0.359375 0.390625 1.140625 0.390625zm9.923691 3.21875l0 -22.6875l5.0 0l0 19.296875l5.21875 0l0 3.390625l-10.21875 0zm18.50293 0.34375q-2.609375 0 -4.078125 -0.859375q-1.46875 -0.859375 -2.0625 -2.484375q-0.578125 -1.640625 -0.578125 -4.03125l0 -15.65625l4.953125 0l0 16.421875q0 0.6875 0.109375 1.390625q0.109375 0.703125 0.484375 1.15625q0.390625 0.4375 1.171875 0.4375q0.8125 0 1.171875 -0.4375q0.359375 -0.453125 0.453125 -1.15625q0.109375 -0.703125 0.109375 -1.390625l0 -16.421875l4.984375 0l0 15.65625q0 2.390625 -0.609375 4.03125q-0.59375 1.625 -2.046875 2.484375q-1.453125 0.859375 -4.0625 0.859375zm11.948425 -0.34375l0 -18.953125l-3.40625 0l0 -3.734375l11.84375 0l0 3.734375l-3.390625 0l0 18.953125l-5.046875 0zm10.4444275 0l0 -22.6875l5.015625 0l0 22.6875l-5.015625 0zm14.89679 0.34375q-2.546875 0 -4.03125 -0.890625q-1.484375 -0.90625 -2.125 -2.578125q-0.640625 -1.6875 -0.640625 -4.015625l0 -8.421875q0 -2.359375 0.640625 -4.0q0.640625 -1.65625 2.125 -2.53125q1.484375 -0.890625 4.03125 -0.890625q2.578125 0 4.078125 0.890625q1.5 0.875 2.140625 2.53125q0.640625 1.640625 0.640625 4.0l0 8.421875q0 2.328125 -0.640625 4.015625q-0.640625 1.671875 -2.140625 2.578125q-1.5 0.890625 -4.078125 0.890625zm0 -3.5625q0.78125 0 1.140625 -0.390625q0.375 -0.390625 0.484375 -1.0q0.109375 -0.625 0.109375 -1.265625l0 -10.921875q0 -0.671875 -0.109375 -1.265625q-0.109375 -0.609375 -0.484375 -1.0q-0.359375 -0.390625 -1.140625 -0.390625q-0.71875 0 -1.09375 0.390625q-0.359375 0.390625 -0.46875 1.0q-0.109375 0.59375 -0.109375 1.265625l0 10.921875q0 0.640625 0.09375 1.265625q0.09375 0.609375 0.4375 1.0q0.359375 0.390625 1.140625 0.390625zm9.923706 3.21875l0 -22.6875l3.515625 0l4.65625 10.921875l0 -10.921875l4.140625 0l0 22.6875l-3.390625 0l-4.640625 -11.765625l0 11.765625l-4.28125 0zm21.723694 0.34375q-2.125 0 -3.5625 -0.75q-1.421875 -0.765625 -2.15625 -2.34375q-0.71875 -1.59375 -0.8125 -4.109375l4.28125 -0.640625q0.03125 1.453125 0.265625 2.359375q0.25 0.890625 0.671875 1.28125q0.4375 0.390625 1.0625 0.390625q0.78125 0 1.015625 -0.53125q0.234375 -0.53125 0.234375 -1.125q0 -1.40625 -0.671875 -2.359375q-0.671875 -0.96875 -1.8125 -1.953125l-1.96875 -1.703125q-1.28125 -1.09375 -2.171875 -2.484375q-0.875 -1.390625 -0.875 -3.421875q0 -2.890625 1.703125 -4.40625q1.71875 -1.53125 4.65625 -1.53125q1.8125 0 2.921875 0.625q1.109375 0.609375 1.671875 1.609375q0.578125 0.984375 0.78125 2.09375q0.21875 1.09375 0.25 2.109375l-4.3125 0.53125q-0.03125 -1.015625 -0.125 -1.75q-0.09375 -0.75 -0.40625 -1.140625q-0.3125 -0.40625 -0.953125 -0.40625q-0.703125 0 -1.03125 0.59375q-0.3125 0.578125 -0.3125 1.15625q0 1.265625 0.59375 2.0625q0.609375 0.796875 1.59375 1.671875l1.875 1.640625q1.484375 1.265625 2.5 2.859375q1.03125 1.59375 1.03125 3.953125q0 1.59375 -0.734375 2.90625q-0.71875 1.296875 -2.0625 2.0625q-1.328125 0.75 -3.140625 0.75z" fill-rule="nonzero"></path></g></svg> 